HIERARCHY
ROOT hip
{
	OFFSET 0.000000 0.000000 0.000000
	CHANNELS 6 Xposition Yposition Zposition Xrotation Zrotation Yrotation 
	JOINT abdomen
	{
		OFFSET 0.000000 3.422050 0.000000
		CHANNELS 3 Xrotation Zrotation Yrotation 
		JOINT chest
		{
			OFFSET 0.000000 8.486693 -0.684411
			CHANNELS 3 Xrotation Zrotation Yrotation 
			JOINT neck
			{
				OFFSET 0.000000 10.266162 -0.273764
				CHANNELS 3 Xrotation Zrotation Yrotation 
				JOINT head
				{
					OFFSET 0.000000 3.148285 0.000000
					CHANNELS 3 Xrotation Zrotation Yrotation 
					End Site
					{
						OFFSET 0.000000 3.148289 0.000000
					}
				}
			}
			JOINT lCollar
			{
				OFFSET 3.422053 6.707223 -0.821293
				CHANNELS 3 Yrotation Zrotation Xrotation 
				JOINT lShldr
				{
					OFFSET 3.285171 0.000000 0.000000
					CHANNELS 3 Zrotation Yrotation Xrotation 
					JOINT lForeArm
					{
						OFFSET 10.129278 0.000000 0.000000
						CHANNELS 3 Yrotation Zrotation Xrotation 
						JOINT lHand
						{
							OFFSET 8.486692 0.000000 0.000000
							CHANNELS 3 Zrotation Yrotation Xrotation 
							End Site
							{
								OFFSET 4.106464 0.000000 0.000000
							}
						}
					}
				}
			}
			JOINT rCollar
			{
				OFFSET -3.558935 6.707223 -0.821293
				CHANNELS 3 Yrotation Zrotation Xrotation 
				JOINT rShldr
				{
					OFFSET -3.148289 0.000000 0.000000
					CHANNELS 3 Zrotation Yrotation Xrotation 
					JOINT rForeArm
					{
						OFFSET -10.266159 0.000000 0.000000
						CHANNELS 3 Yrotation Zrotation Xrotation 
						JOINT rHand
						{
							OFFSET -8.349810 0.000000 0.000000
							CHANNELS 3 Zrotation Yrotation Xrotation 
							End Site
							{
								OFFSET -4.106464 0.000000 0.000000
							}
						}
					}
				}
			}
		}
	}
	JOINT lThigh
	{
		OFFSET 5.338403 -1.642589 1.368821
		CHANNELS 3 Xrotation Zrotation Yrotation 
		JOINT lShin
		{
			OFFSET -2.053232 -20.121670 0.000000
			CHANNELS 3 Xrotation Zrotation Yrotation 
			JOINT lFoot
			{
				OFFSET 0.000000 -19.300380 -1.231939
				CHANNELS 3 Xrotation Yrotation Zrotation 
				End Site
				{
					OFFSET 0.000000 -2.463878 4.653993
				}
			}
		}
	}
	JOINT rThigh
	{
		OFFSET -5.338403 -1.642589 1.368821
		CHANNELS 3 Xrotation Zrotation Yrotation 
		JOINT rShin
		{
			OFFSET 2.053232 -20.121670 0.000000
			CHANNELS 3 Xrotation Zrotation Yrotation 
			JOINT rFoot
			{
				OFFSET 0.000000 -19.300380 -1.231939
				CHANNELS 3 Xrotation Yrotation Zrotation 
				End Site
				{
					OFFSET 0.000000 -2.463878 4.653993
				}
			}
		}
	}
}
MOTION
Frames: 6
Frame Time: 0.049897
0.000000 43.528500 0.000000 0.000000 0.000000 0.000000 0.000000 0.000000 0.000000 0.000000 0.000000 0.000000 0.000000 0.000000 0.000000 0.000000 0.000000 0.000000 0.000000 0.000000 0.000000 0.000000 0.000000 0.000000 0.000000 0.000000 0.000000 0.000000 0.000000 0.000000 0.000000 0.000000 0.000000 0.000000 0.000000 0.000000 0.000000 0.000000 0.000000 0.000000 0.000000 0.000000 0.000000 0.000000 0.000000 0.000000 0.000000 0.000000 0.000000 0.000000 0.000000 0.000000 0.000000 0.000000 0.000000 0.000000 0.000000 0.000000 0.000000 0.000000 
19.995882 6.711674 15.165870 121.013481 -0.002582 179.995438 19.657356 0.000000 0.000000 12.567667 -0.001213 -0.452233 13.997003 0.000000 0.000000 0.134637 0.000000 0.000000 1.977989 -41.634033 -2.430727 2.201584 1.072014 55.271576 -3.486198 -0.846801 36.300873 0.272672 -5.062348 14.146859 -1.737132 41.138668 -2.634000 -2.225895 -1.211597 55.393951 3.647345 0.736776 36.275124 -0.197047 5.091994 14.178514 -64.978905 18.852610 32.663704 116.200989 35.944923 12.289164 -10.453363 3.777698 20.635443 -54.153667 -15.775946 -37.335289 112.067436 -41.300430 10.366531 -6.226880 -3.610133 -2.651180 
19.995882 6.711674 15.090443 121.005341 -0.002582 179.995438 18.496054 0.000000 0.000000 15.625301 -0.001118 -0.452120 13.997003 0.000000 0.000000 0.134637 0.000000 0.000000 1.398847 -38.667534 -3.161025 -0.145662 1.119779 55.263432 -4.912532 -1.055778 36.303989 0.595573 -4.261641 12.760434 -1.187049 38.200630 -3.335820 0.121160 -1.254324 55.377113 5.058963 0.947607 36.280102 -0.525728 4.293872 12.787376 -65.777100 18.778856 32.542084 116.999268 35.820534 12.755460 -10.453363 3.777698 20.635443 -54.932266 -15.960107 -37.018856 113.203094 -41.142715 9.600055 -6.381770 -3.301316 -2.627141 
19.995882 6.711674 15.015016 121.005341 -0.002582 179.995438 17.332832 0.000000 0.000000 18.720207 -0.001029 -0.452000 13.997005 0.000000 0.000000 0.134637 0.000000 0.000000 0.882925 -35.660522 -3.833775 -2.509337 1.167501 55.253273 -6.342624 -1.265305 36.301895 0.899609 -3.450784 11.375433 -0.696435 35.223652 -3.983832 2.484642 -1.296616 55.358395 6.474211 1.159028 36.279877 -0.835555 3.485432 11.397700 -66.575340 18.703449 32.421535 117.795387 35.690823 13.219075 -10.453363 3.777698 20.635443 -55.713215 -16.140244 -36.699326 114.334068 -40.973465 8.839071 -6.536764 -2.992519 -2.602269 
19.995882 6.711674 14.939589 121.005341 -0.002582 179.995438 16.167917 0.000000 0.000000 21.848486 -0.000945 -0.451874 13.997005 0.000000 0.000000 0.134637 0.000000 0.000000 0.422514 -32.617462 -4.457019 -4.887587 1.215051 55.241070 -7.776068 -1.475185 36.294537 1.184483 -2.630525 9.991911 -0.258196 32.211960 -4.585453 4.862697 -1.338352 55.337814 7.892700 1.370845 36.274410 -1.126221 2.667424 10.009562 -67.373581 18.626415 32.302090 118.589256 35.555855 13.679877 -10.453363 3.777698 20.635443 -56.496403 -16.316282 -36.376762 115.459908 -40.792805 8.084042 -6.691871 -2.683750 -2.576564 
19.995882 6.711674 14.864161 121.005341 -0.002582 179.995438 15.001553 0.000000 0.000000 25.005947 -0.000868 -0.451742 13.997002 0.000000 0.000000 0.134637 0.000000 0.000000 0.011211 -29.542887 -5.037508 -7.278482 1.262302 55.226830 -9.212460 -1.685221 36.281906 1.449919 -1.801635 8.609917 0.133579 29.169962 -5.146938 7.253392 -1.379412 55.315399 9.314035 1.582862 36.263676 -1.397446 1.840620 8.623013 -68.171722 18.547770 32.183765 119.380737 35.415653 14.137734 -10.453363 3.777697 20.635443 -57.281750 -16.488163 -36.051250 116.580116 -40.600849 7.335431 -6.847099 -2.375019 -2.550027 
